<?xml version="1.0" encoding="UTF-8"?>
<svg width="90" height="96.8" viewBox="0 0 90 96.8" xmlns="http://www.w3.org/2000/svg" xmlns:xlink="http://www.w3.org/1999/xlink">
    <!-- Generator: Sketch 51.3 (57544) - http://www.bohemiancoding.com/sketch -->
    <title>logo-mobile</title>
    <desc>Created with Google Font to Svg Path.</desc>
    <defs></defs>
    <g id="Page-1" stroke="none" stroke-width="1" fill="none" fill-rule="evenodd">
        <g id="logo-mobile-zeroidea">
            <rect id="Rectangle-6" stroke="#1C3ED3" stroke-width="6" fill-rule="nonzero" x="2" y="2" width="75" height="82"></rect>
            <path d="M 45.5 9 L 45.5 26.9 A 193.397 193.397 0 0 1 45.288 36.131 A 156.105 156.105 0 0 1 44.9 42 Q 44.3 49 43.3 56.2 L 31.9 56.2 Q 30.9 49 30.25 42 A 150.989 150.989 0 0 1 29.695 32.94 A 186.59 186.59 0 0 1 29.6 26.9 L 29.6 9 L 45.5 9 Z M 46.448 73.247 A 10.861 10.861 0 0 0 46.8 70.4 A 11.597 11.597 0 0 0 46.633 68.386 A 7.813 7.813 0 0 0 43.95 63.6 Q 41.1 61.2 37.5 61.2 Q 33.9 61.2 31.05 63.6 A 7.66 7.66 0 0 0 28.552 67.553 A 10.861 10.861 0 0 0 28.2 70.4 A 11.597 11.597 0 0 0 28.367 72.414 A 7.813 7.813 0 0 0 31.05 77.2 Q 33.9 79.6 37.5 79.6 Q 41.1 79.6 43.95 77.2 A 7.66 7.66 0 0 0 46.448 73.247 Z" id="1" vector-effect="non-scaling-stroke" fill="#1C3ED3"></path>
        </g>
    </g>
</svg>

