<?xml version="1.0" encoding="UTF-8"?>
<svg width="391.2" height="78.8" viewBox="0 0 391.2 78.8" xmlns="http://www.w3.org/2000/svg" version="1.1" xmlns:xlink="http://www.w3.org/1999/xlink">
    <!-- Generator: Sketch 51.3 (57544) - http://www.bohemiancoding.com/sketch -->
    <title>logo</title>
    <desc>Created with Google Font to Svg Path.</desc>
    <defs></defs>
    <g id="Page-1" stroke="none" stroke-width="1" fill="none" fill-rule="evenodd" stroke-linecap="round">
        <g id="logo">
            <path d="M 38.9 25.6 L 38.9 32.6 A 88.963 88.963 0 0 0 37.766 33.869 Q 36.509 35.3 34.893 37.236 A 310.794 310.794 0 0 0 33.35 39.1 Q 29.9 43.3 25.95 48.4 A 296.116 296.116 0 0 0 18.544 58.402 A 324.074 324.074 0 0 0 18.05 59.1 A 169.559 169.559 0 0 0 13.694 65.574 A 135.919 135.919 0 0 0 11.1 69.8 L 39.7 69.8 L 39.7 77.6 L 0 77.6 L 0 71.4 A 112.415 112.415 0 0 1 2.492 67.077 Q 4.041 64.516 5.9 61.7 Q 9.4 56.4 13.25 51.15 Q 17.1 45.9 20.75 41.25 A 398.434 398.434 0 0 1 23.354 37.966 Q 24.383 36.683 25.32 35.542 A 202.036 202.036 0 0 1 27.1 33.4 L 1.4 33.4 L 1.4 25.6 L 38.9 25.6 Z" id="0" fill="#3f3f3f"></path>
            <path d="M 92 54.1 L 56.4 54.1 A 28.087 28.087 0 0 0 57.171 58.996 Q 58.345 63.578 61.1 66.4 Q 65.2 70.6 73.9 70.6 Q 77.652 70.6 80.495 70.102 A 22.597 22.597 0 0 0 82.15 69.75 Q 84.911 69.049 86.551 68.383 A 13.193 13.193 0 0 0 87.2 68.1 L 88.5 75.9 Q 87.218 76.579 84.487 77.314 A 62.819 62.819 0 0 1 82.55 77.8 Q 78.366 78.784 73.068 78.8 A 57.968 57.968 0 0 1 72.9 78.8 A 37.942 37.942 0 0 1 67.398 78.422 Q 63.973 77.919 61.15 76.75 Q 56.2 74.7 53 71.1 A 22.733 22.733 0 0 1 48.609 63.617 A 26.545 26.545 0 0 1 48.25 62.55 A 33.925 33.925 0 0 1 46.867 55.47 A 41.586 41.586 0 0 1 46.7 51.7 A 40.41 40.41 0 0 1 47.083 45.997 Q 47.529 42.87 48.495 40.198 A 24.764 24.764 0 0 1 48.7 39.65 A 28.388 28.388 0 0 1 51.108 34.804 A 22.452 22.452 0 0 1 54 31.1 Q 57.3 27.7 61.6 26 Q 65.9 24.3 70.4 24.3 A 26.866 26.866 0 0 1 76.971 25.056 A 17.964 17.964 0 0 1 86.5 30.85 A 20.38 20.38 0 0 1 90.177 37.449 Q 91.229 40.456 91.705 44.167 A 52.206 52.206 0 0 1 92.1 50.8 L 92.1 52.35 Q 92.1 53.3 92 54.1 Z M 56.6 46.6 L 82.4 46.6 Q 82.5 40.3 79.25 36.25 A 10.583 10.583 0 0 0 71.518 32.248 A 14.979 14.979 0 0 0 70.3 32.2 Q 67.1 32.2 64.65 33.45 Q 62.2 34.7 60.5 36.7 A 14.947 14.947 0 0 0 57.865 41.259 A 16.844 16.844 0 0 0 57.85 41.3 Q 56.9 43.9 56.6 46.6 Z" id="1" fill="#3f3f3f"></path>
            <path d="M 135.1 26 L 133.5 34.1 Q 132.4 33.7 129.85 33.15 Q 128.117 32.776 125.714 32.656 A 48.627 48.627 0 0 0 123.3 32.6 Q 120.7 32.6 118.15 33.15 A 401.006 401.006 0 0 0 117.118 33.374 Q 115.822 33.657 115.152 33.815 A 27.353 27.353 0 0 0 114.8 33.9 L 114.8 77.6 L 105.5 77.6 L 105.5 27.8 A 44.891 44.891 0 0 1 108.2 26.921 Q 109.704 26.48 111.447 26.061 A 93.181 93.181 0 0 1 113.7 25.55 A 45.855 45.855 0 0 1 119.245 24.731 A 61.68 61.68 0 0 1 124.7 24.5 A 23.12 23.12 0 0 1 125.817 24.529 Q 126.578 24.566 127.45 24.65 Q 129 24.8 130.5 25.05 Q 132 25.3 133.25 25.55 Q 134.5 25.8 135.1 26 Z" id="2"  fill="#3f3f3f"></path>
            <path d="M 189.492 57.849 A 36.865 36.865 0 0 0 190 51.6 Q 190 45.5 188.2 40.45 Q 186.4 35.4 183.15 31.8 Q 179.9 28.2 175.4 26.25 A 22.895 22.895 0 0 0 172.769 25.296 A 25.227 25.227 0 0 0 165.6 24.3 A 28.028 28.028 0 0 0 164.287 24.33 A 23.986 23.986 0 0 0 155.8 26.25 Q 151.3 28.2 148.05 31.8 A 23.504 23.504 0 0 0 145.816 34.704 A 27.1 27.1 0 0 0 143 40.45 A 29.682 29.682 0 0 0 141.802 44.898 A 35.966 35.966 0 0 0 141.2 51.6 Q 141.2 57.8 143 62.8 Q 144.8 67.8 148.05 71.4 Q 151.3 75 155.8 76.95 A 22.895 22.895 0 0 0 158.431 77.904 A 25.227 25.227 0 0 0 165.6 78.9 A 28.028 28.028 0 0 0 166.913 78.87 A 23.986 23.986 0 0 0 175.4 76.95 Q 179.9 75 183.15 71.4 A 23.73 23.73 0 0 0 185.213 68.76 A 26.915 26.915 0 0 0 188.2 62.8 A 29.189 29.189 0 0 0 189.492 57.849 Z M 178.055 40.406 A 16.46 16.46 0 0 0 176.35 37.65 Q 172.4 32.5 165.6 32.5 A 14.438 14.438 0 0 0 160.545 33.35 A 12.647 12.647 0 0 0 154.85 37.65 Q 150.9 42.8 150.9 51.6 Q 150.9 58.234 153.145 62.794 A 16.46 16.46 0 0 0 154.85 65.55 Q 158.8 70.7 165.6 70.7 A 14.438 14.438 0 0 0 170.655 69.85 A 12.647 12.647 0 0 0 176.35 65.55 Q 180.3 60.4 180.3 51.6 Q 180.3 44.966 178.055 40.406 Z" id="3" fill="#3f3f3f" ></path>
            <path d="M 212.4 25.6 L 212.4 77.6 L 203.1 77.6 L 203.1 25.6 L 212.4 25.6 Z M 207.7 16.2 Q 205.2 16.2 203.45 14.55 A 5.467 5.467 0 0 1 201.796 11.349 A 7.805 7.805 0 0 1 201.7 10.1 Q 201.7 7.3 203.45 5.65 Q 205.2 4 207.7 4 Q 210.2 4 211.95 5.65 A 5.467 5.467 0 0 1 213.604 8.851 A 7.805 7.805 0 0 1 213.7 10.1 Q 213.7 12.9 211.95 14.55 Q 210.2 16.2 207.7 16.2 Z" id="4" fill="#2142cf"></path>
            <path d="M 262 27.9 L 262 1.6 L 271.3 0 L 271.3 76.1 Q 269.15 76.705 266.187 77.309 A 135.562 135.562 0 0 1 263.1 77.9 A 53.689 53.689 0 0 1 258.083 78.546 Q 255.479 78.764 252.563 78.795 A 91.489 91.489 0 0 1 251.6 78.8 A 32.604 32.604 0 0 1 245.564 78.264 A 25.957 25.957 0 0 1 240.8 76.9 A 23.366 23.366 0 0 1 233.5 72.376 A 22.35 22.35 0 0 1 232.6 71.5 Q 229.2 68 227.35 62.95 A 29.993 29.993 0 0 1 225.766 56.195 A 38.463 38.463 0 0 1 225.5 51.6 Q 225.5 45.6 227.05 40.6 A 26.513 26.513 0 0 1 229.402 35.156 A 22.561 22.561 0 0 1 231.6 32 Q 234.6 28.4 238.95 26.4 Q 243.3 24.4 248.9 24.4 A 28.712 28.712 0 0 1 252.888 24.664 A 20.87 20.87 0 0 1 256.85 25.6 A 44.866 44.866 0 0 1 258.744 26.304 Q 260.805 27.127 262 27.9 Z M 262 69.5 L 262 36.6 A 12.126 12.126 0 0 0 260.654 35.649 Q 259.2 34.753 257.1 33.9 A 17.867 17.867 0 0 0 251.619 32.654 A 21.209 21.209 0 0 0 250.1 32.6 Q 246.317 32.6 243.562 33.897 A 11.385 11.385 0 0 0 243.25 34.05 Q 240.4 35.5 238.6 38.05 A 15.711 15.711 0 0 0 236.668 41.806 A 19.721 19.721 0 0 0 236 44.1 A 32.095 32.095 0 0 0 235.263 49.39 A 37.979 37.979 0 0 0 235.2 51.6 A 29.511 29.511 0 0 0 235.684 57.124 Q 236.676 62.324 239.7 65.65 A 14.877 14.877 0 0 0 249.429 70.479 A 20.761 20.761 0 0 0 251.7 70.6 A 68.419 68.419 0 0 0 254.322 70.553 Q 255.511 70.507 256.542 70.417 A 30.899 30.899 0 0 0 258.05 70.25 Q 260.6 69.9 262 69.5 Z" id="5"  fill="#2142cf"></path>
            <path d="M 329.7 54.1 L 294.1 54.1 A 28.087 28.087 0 0 0 294.871 58.996 Q 296.045 63.578 298.8 66.4 Q 302.9 70.6 311.6 70.6 Q 315.352 70.6 318.195 70.102 A 22.597 22.597 0 0 0 319.85 69.75 Q 322.611 69.049 324.251 68.383 A 13.193 13.193 0 0 0 324.9 68.1 L 326.2 75.9 Q 324.918 76.579 322.187 77.314 A 62.819 62.819 0 0 1 320.25 77.8 Q 316.066 78.784 310.768 78.8 A 57.968 57.968 0 0 1 310.6 78.8 A 37.942 37.942 0 0 1 305.098 78.422 Q 301.673 77.919 298.85 76.75 Q 293.9 74.7 290.7 71.1 A 22.733 22.733 0 0 1 286.309 63.617 A 26.545 26.545 0 0 1 285.95 62.55 A 33.925 33.925 0 0 1 284.567 55.47 A 41.586 41.586 0 0 1 284.4 51.7 A 40.41 40.41 0 0 1 284.783 45.997 Q 285.229 42.87 286.195 40.198 A 24.764 24.764 0 0 1 286.4 39.65 A 28.388 28.388 0 0 1 288.808 34.804 A 22.452 22.452 0 0 1 291.7 31.1 Q 295 27.7 299.3 26 Q 303.6 24.3 308.1 24.3 A 26.866 26.866 0 0 1 314.671 25.056 A 17.964 17.964 0 0 1 324.2 30.85 A 20.38 20.38 0 0 1 327.877 37.449 Q 328.929 40.456 329.405 44.167 A 52.206 52.206 0 0 1 329.8 50.8 L 329.8 52.35 Q 329.8 53.3 329.7 54.1 Z M 294.3 46.6 L 320.1 46.6 Q 320.2 40.3 316.95 36.25 A 10.583 10.583 0 0 0 309.218 32.248 A 14.979 14.979 0 0 0 308 32.2 Q 304.8 32.2 302.35 33.45 Q 299.9 34.7 298.2 36.7 A 14.947 14.947 0 0 0 295.565 41.259 A 16.844 16.844 0 0 0 295.55 41.3 Q 294.6 43.9 294.3 46.6 Z" id="6"  fill="#2142cf"></path>
            <path d="M 380 44.2 L 380 76.7 Q 379.081 76.853 377.606 77.094 A 1762.83 1762.83 0 0 1 376.65 77.25 A 82.13 82.13 0 0 1 374.4 77.582 Q 373.248 77.737 371.971 77.881 A 132.357 132.357 0 0 1 371.8 77.9 Q 369.1 78.2 365.95 78.45 Q 362.8 78.7 359.7 78.7 A 37.726 37.726 0 0 1 354.971 78.415 A 30.364 30.364 0 0 1 351.6 77.8 Q 347.9 76.9 345.2 74.95 A 12.989 12.989 0 0 1 341.119 70.048 A 15.291 15.291 0 0 1 341 69.8 A 15.134 15.134 0 0 1 339.852 66.154 Q 339.544 64.514 339.505 62.64 A 26.302 26.302 0 0 1 339.5 62.1 A 17.76 17.76 0 0 1 339.835 58.567 A 13.111 13.111 0 0 1 341.25 54.7 Q 343 51.6 346 49.7 A 20.382 20.382 0 0 1 350.311 47.656 A 25.603 25.603 0 0 1 353 46.9 A 37.649 37.649 0 0 1 360.306 46.014 A 42.305 42.305 0 0 1 361.4 46 A 28.656 28.656 0 0 1 363.834 46.107 A 32.053 32.053 0 0 1 364.3 46.15 A 35.775 35.775 0 0 1 366.466 46.431 A 31.084 31.084 0 0 1 367.15 46.55 Q 368.078 46.722 368.841 46.87 A 124.136 124.136 0 0 1 369.5 47 A 83.95 83.95 0 0 1 369.963 47.094 Q 370.533 47.211 370.833 47.284 A 8.295 8.295 0 0 1 370.9 47.3 L 370.9 44.7 Q 370.9 42.4 370.4 40.15 Q 369.9 37.9 368.6 36.15 A 8.607 8.607 0 0 0 366.24 33.996 A 10.863 10.863 0 0 0 365.05 33.35 Q 363.322 32.544 360.797 32.356 A 21.641 21.641 0 0 0 359.2 32.3 Q 355.247 32.3 352.144 32.78 A 30.748 30.748 0 0 0 351.15 32.95 Q 347.7 33.6 346 34.3 L 344.9 26.6 A 11.481 11.481 0 0 1 346.026 26.179 Q 347.242 25.786 349.057 25.406 A 63.132 63.132 0 0 1 350.9 25.05 A 47.935 47.935 0 0 1 356.423 24.405 A 59.098 59.098 0 0 1 360 24.3 A 35.959 35.959 0 0 1 364.108 24.521 Q 366.168 24.759 367.92 25.25 A 18.587 18.587 0 0 1 369.45 25.75 Q 373.3 27.2 375.65 29.85 Q 378 32.5 379 36.15 A 27.895 27.895 0 0 1 379.853 40.941 A 35.169 35.169 0 0 1 380 44.2 Z M 370.9 70.2 L 370.9 54.7 A 5.267 5.267 0 0 0 370.239 54.431 Q 369.504 54.182 368.401 53.977 A 26.389 26.389 0 0 0 367.65 53.85 A 26.068 26.068 0 0 0 365.829 53.637 Q 364.811 53.551 363.648 53.519 A 52.617 52.617 0 0 0 362.2 53.5 A 32.898 32.898 0 0 0 359.477 53.617 A 39.436 39.436 0 0 0 357.75 53.8 A 14.255 14.255 0 0 0 354.611 54.555 A 12.631 12.631 0 0 0 353.45 55.05 Q 351.5 56 350.2 57.65 A 5.788 5.788 0 0 0 349.149 59.838 Q 348.935 60.681 348.905 61.672 A 10.821 10.821 0 0 0 348.9 62 A 12.137 12.137 0 0 0 349.151 64.563 Q 349.479 66.078 350.234 67.186 A 6.02 6.02 0 0 0 352.1 68.95 Q 354.543 70.439 358.328 70.791 A 26.723 26.723 0 0 0 360.8 70.9 Q 364.1 70.9 366.65 70.75 A 36.125 36.125 0 0 0 368.426 70.604 Q 369.26 70.514 369.976 70.388 A 16.428 16.428 0 0 0 370.9 70.2 Z" id="7" fill="#2142cf"></path>
        </g>
    </g>
</svg>