<svg width="371" height="78.8" viewBox="0 0 371 78.8" xmlns="http://www.w3.org/2000/svg"><g id="svgGroup" stroke-linecap="round" fill-rule="evenodd" font-size="9pt" stroke="#000" stroke-width="0.25mm" fill="none" style="stroke:#000;stroke-width:0.25mm;fill:none"><path d="M 36.9 25.9 L 36.9 31.2 Q 35.139 33.191 32.557 36.354 A 369.167 369.167 0 0 0 30.9 38.4 Q 27.2 43 23 48.65 Q 18.8 54.3 14.7 60.45 A 203.984 203.984 0 0 0 10.404 67.163 A 160.926 160.926 0 0 0 7.5 72.1 L 37.8 72.1 L 37.8 77.6 L 0 77.6 L 0 72.9 Q 2.427 68.325 5.944 62.879 A 194.134 194.134 0 0 1 6.45 62.1 Q 10.3 56.2 14.4 50.45 A 368.111 368.111 0 0 1 20.19 42.546 A 315.77 315.77 0 0 1 22.4 39.65 Q 26.3 34.6 29 31.4 L 1.5 31.4 L 1.5 25.9 L 36.9 25.9 Z M 264.7 0 L 264.7 76 Q 262.718 76.684 259.987 77.32 A 86.711 86.711 0 0 1 257.3 77.9 A 40.089 40.089 0 0 1 253.672 78.44 Q 251.756 78.642 249.537 78.731 A 91.242 91.242 0 0 1 245.9 78.8 A 30.422 30.422 0 0 1 239.82 78.215 A 25.047 25.047 0 0 1 235.55 76.95 Q 230.9 75.1 227.55 71.6 A 23.596 23.596 0 0 1 223.13 64.996 A 28.143 28.143 0 0 1 222.35 63.1 Q 220.5 58.1 220.5 51.8 A 39.222 39.222 0 0 1 221.046 45.129 A 32.393 32.393 0 0 1 222.05 40.95 Q 223.6 36 226.6 32.4 Q 229.6 28.8 233.95 26.8 Q 238.3 24.8 243.9 24.8 A 30.206 30.206 0 0 1 248.104 25.078 Q 250.324 25.39 252.216 26.053 A 17.926 17.926 0 0 1 252.75 26.25 Q 256 27.507 257.71 28.651 A 9.524 9.524 0 0 1 258.2 29 L 258.2 1.2 L 264.7 0 Z M 89.6 53.1 L 53.3 53.1 A 34.319 34.319 0 0 0 53.926 58.798 Q 54.545 61.867 55.757 64.3 A 16.299 16.299 0 0 0 58 67.7 A 13.507 13.507 0 0 0 63.92 71.603 Q 66.171 72.389 68.947 72.659 A 31.573 31.573 0 0 0 72 72.8 A 45.97 45.97 0 0 0 75.098 72.702 Q 78.163 72.495 80.257 71.845 A 13.293 13.293 0 0 0 80.4 71.8 Q 83.5 70.8 84.9 70.1 L 86.1 75.7 A 8.872 8.872 0 0 1 85.247 76.119 Q 83.738 76.775 80.85 77.6 Q 77 78.7 71.8 78.7 A 38.681 38.681 0 0 1 66.605 78.37 Q 63.05 77.888 60.2 76.7 A 21.952 21.952 0 0 1 54.864 73.575 A 19.406 19.406 0 0 1 52.3 71.1 A 21.755 21.755 0 0 1 48.189 63.804 A 25.626 25.626 0 0 1 47.8 62.55 Q 46.4 57.6 46.4 51.7 Q 46.4 45.378 48.085 40.569 A 24.374 24.374 0 0 1 48.35 39.85 A 29.344 29.344 0 0 1 50.74 34.983 A 23.18 23.18 0 0 1 53.45 31.4 A 20.354 20.354 0 0 1 59.284 26.969 A 19.365 19.365 0 0 1 60.65 26.35 Q 64.7 24.7 69 24.7 A 23.513 23.513 0 0 1 75.803 25.637 A 18.192 18.192 0 0 1 84.15 30.9 A 19.005 19.005 0 0 1 87.912 37.324 Q 88.959 40.218 89.426 43.802 A 48.121 48.121 0 0 1 89.8 50 Q 89.8 50.8 89.75 51.6 A 20.408 20.408 0 0 1 89.668 52.561 A 16.896 16.896 0 0 1 89.6 53.1 Z M 322 53.1 L 285.7 53.1 A 34.319 34.319 0 0 0 286.326 58.798 Q 286.945 61.867 288.157 64.3 A 16.299 16.299 0 0 0 290.4 67.7 A 13.507 13.507 0 0 0 296.32 71.603 Q 298.571 72.389 301.347 72.659 A 31.573 31.573 0 0 0 304.4 72.8 A 45.97 45.97 0 0 0 307.498 72.702 Q 310.563 72.495 312.657 71.845 A 13.293 13.293 0 0 0 312.8 71.8 Q 315.9 70.8 317.3 70.1 L 318.5 75.7 A 8.872 8.872 0 0 1 317.647 76.119 Q 316.138 76.775 313.25 77.6 Q 309.4 78.7 304.2 78.7 A 38.681 38.681 0 0 1 299.005 78.37 Q 295.45 77.888 292.6 76.7 A 21.952 21.952 0 0 1 287.264 73.575 A 19.406 19.406 0 0 1 284.7 71.1 A 21.755 21.755 0 0 1 280.589 63.804 A 25.626 25.626 0 0 1 280.2 62.55 Q 278.8 57.6 278.8 51.7 Q 278.8 45.378 280.485 40.569 A 24.374 24.374 0 0 1 280.75 39.85 A 29.344 29.344 0 0 1 283.14 34.983 A 23.18 23.18 0 0 1 285.85 31.4 A 20.354 20.354 0 0 1 291.684 26.969 A 19.365 19.365 0 0 1 293.05 26.35 Q 297.1 24.7 301.4 24.7 A 23.513 23.513 0 0 1 308.203 25.637 A 18.192 18.192 0 0 1 316.55 30.9 A 19.005 19.005 0 0 1 320.312 37.324 Q 321.359 40.218 321.826 43.802 A 48.121 48.121 0 0 1 322.2 50 Q 322.2 50.8 322.15 51.6 A 20.408 20.408 0 0 1 322.068 52.561 A 16.896 16.896 0 0 1 322 53.1 Z M 371 43.8 L 371 76.4 Q 370.234 76.63 368.941 76.889 A 55.415 55.415 0 0 1 368.1 77.05 A 152.561 152.561 0 0 1 366.323 77.366 Q 365.106 77.575 363.7 77.8 Q 361.2 78.2 358.15 78.45 Q 355.1 78.7 351.9 78.7 Q 347.8 78.7 344.35 77.8 A 17.779 17.779 0 0 1 340.412 76.277 A 15.305 15.305 0 0 1 338.35 74.95 Q 335.8 73 334.35 69.95 A 14.121 14.121 0 0 1 333.274 66.621 Q 332.97 65.088 332.913 63.326 A 25.56 25.56 0 0 1 332.9 62.5 A 18.438 18.438 0 0 1 333.201 59.083 A 13.174 13.174 0 0 1 334.5 55.3 Q 336.1 52.3 339 50.35 A 18.438 18.438 0 0 1 343.048 48.325 A 23.743 23.743 0 0 1 345.9 47.5 A 36.686 36.686 0 0 1 351.173 46.727 A 45.19 45.19 0 0 1 354.6 46.6 A 29.182 29.182 0 0 1 356.596 46.671 A 34.23 34.23 0 0 1 357.55 46.75 A 40.992 40.992 0 0 1 360.368 47.119 A 37.656 37.656 0 0 1 360.55 47.15 Q 361.66 47.341 362.536 47.533 A 28.466 28.466 0 0 1 363.05 47.65 Q 364.083 47.896 364.487 48.093 A 1.685 1.685 0 0 1 364.5 48.1 L 364.5 44.9 Q 364.5 42.2 364.1 39.65 Q 363.7 37.1 362.35 35.05 A 9.315 9.315 0 0 0 359.604 32.357 A 11.604 11.604 0 0 0 358.55 31.75 Q 356.668 30.79 353.872 30.567 A 22.347 22.347 0 0 0 352.1 30.5 A 64.966 64.966 0 0 0 349.123 30.563 Q 346.435 30.687 344.626 31.053 A 13.453 13.453 0 0 0 343.6 31.3 Q 340.851 32.085 339.548 32.582 A 15.434 15.434 0 0 0 339.5 32.6 L 338.6 26.9 Q 340.014 26.235 342.706 25.639 A 50.506 50.506 0 0 1 343.85 25.4 Q 347.4 24.7 352.4 24.7 Q 356.637 24.7 359.804 25.701 A 16.21 16.21 0 0 1 361.05 26.15 A 16.446 16.446 0 0 1 364.441 28.001 A 13.501 13.501 0 0 1 366.8 30.15 A 15.485 15.485 0 0 1 369.731 35.34 A 18.192 18.192 0 0 1 370 36.2 Q 371 39.7 371 43.8 Z M 185.246 58.314 A 36.826 36.826 0 0 0 185.8 51.8 Q 185.8 45.7 184.05 40.7 Q 182.3 35.7 179.15 32.15 Q 176 28.6 171.7 26.65 A 21.06 21.06 0 0 0 168.348 25.462 A 24.105 24.105 0 0 0 162.2 24.7 A 26.413 26.413 0 0 0 160.203 24.774 A 22.054 22.054 0 0 0 152.7 26.65 Q 148.4 28.6 145.25 32.15 A 23.119 23.119 0 0 0 143.003 35.145 A 27.101 27.101 0 0 0 140.35 40.7 A 29.807 29.807 0 0 0 139.154 45.286 A 36.826 36.826 0 0 0 138.6 51.8 Q 138.6 57.9 140.35 62.9 A 28.723 28.723 0 0 0 141.445 65.594 A 23.521 23.521 0 0 0 145.25 71.4 Q 148.4 74.9 152.7 76.85 A 21.06 21.06 0 0 0 156.052 78.038 A 24.105 24.105 0 0 0 162.2 78.8 A 26.413 26.413 0 0 0 164.197 78.726 A 22.054 22.054 0 0 0 171.7 76.85 Q 176 74.9 179.15 71.4 A 22.506 22.506 0 0 0 181.498 68.277 A 26.748 26.748 0 0 0 184.05 62.9 A 29.807 29.807 0 0 0 185.246 58.314 Z M 131.9 26.4 L 130.6 32 A 3.962 3.962 0 0 0 130.134 31.81 Q 129.314 31.525 127.706 31.217 A 46.3 46.3 0 0 0 127.35 31.15 Q 124.954 30.71 121.076 30.7 A 70.229 70.229 0 0 0 120.9 30.7 A 48.621 48.621 0 0 0 118.436 30.759 Q 115.944 30.885 114.207 31.287 A 14.407 14.407 0 0 0 114.15 31.3 A 52.96 52.96 0 0 0 113.118 31.553 Q 111.723 31.911 111.053 32.186 A 3.792 3.792 0 0 0 110.8 32.3 L 110.8 77.6 L 104.3 77.6 L 104.3 28.3 A 27.658 27.658 0 0 1 106.048 27.608 Q 108.034 26.892 110.802 26.155 A 93.114 93.114 0 0 1 111.2 26.05 A 31.934 31.934 0 0 1 115.089 25.305 Q 118.159 24.9 121.9 24.9 A 36.701 36.701 0 0 1 126.135 25.136 A 31.614 31.614 0 0 1 127.95 25.4 Q 130.788 25.898 131.891 26.396 A 4.078 4.078 0 0 1 131.9 26.4 Z M 258.2 71.5 L 258.2 35.3 A 16.082 16.082 0 0 0 257.462 34.761 Q 257.044 34.473 256.558 34.17 A 31.085 31.085 0 0 0 255.95 33.8 Q 254.601 33.001 252.804 32.301 A 24.528 24.528 0 0 0 252.8 32.3 A 24.365 24.365 0 0 0 250.058 31.423 A 28.64 28.64 0 0 0 248.9 31.15 A 20.675 20.675 0 0 0 245.072 30.707 A 23.136 23.136 0 0 0 244.5 30.7 Q 239.7 30.7 236.45 32.4 Q 233.2 34.1 231.2 36.95 A 17.978 17.978 0 0 0 228.97 41.341 A 22.172 22.172 0 0 0 228.3 43.65 A 34.861 34.861 0 0 0 227.432 50.203 A 39.918 39.918 0 0 0 227.4 51.8 A 32.726 32.726 0 0 0 227.923 57.847 Q 228.565 61.257 229.995 63.934 A 16.474 16.474 0 0 0 232.5 67.45 A 16.952 16.952 0 0 0 243.333 72.753 A 23.59 23.59 0 0 0 246 72.9 Q 250.694 72.9 253.618 72.47 A 25.099 25.099 0 0 0 253.75 72.45 Q 256.181 72.079 257.628 71.674 A 12.296 12.296 0 0 0 258.2 71.5 Z M 178.9 51.8 A 34.042 34.042 0 0 0 178.368 45.598 Q 177.353 40.123 174.4 36.35 A 14.412 14.412 0 0 0 163.875 30.671 A 19.283 19.283 0 0 0 162.2 30.6 Q 154.5 30.6 150 36.35 A 19.931 19.931 0 0 0 146.522 43.452 Q 145.5 47.177 145.5 51.8 A 33.944 33.944 0 0 0 146.032 57.996 Q 147.047 63.459 150 67.2 A 14.45 14.45 0 0 0 160.554 72.832 A 19.474 19.474 0 0 0 162.2 72.9 A 16.728 16.728 0 0 0 167.928 71.959 A 14.39 14.39 0 0 0 174.4 67.2 A 19.619 19.619 0 0 0 177.844 60.258 Q 178.9 56.498 178.9 51.8 Z M 206.4 25.9 L 206.4 77.6 L 199.9 77.6 L 199.9 25.9 L 206.4 25.9 Z M 53.5 47.6 L 83.1 47.6 A 30.441 30.441 0 0 0 82.603 42.672 Q 81.719 38.023 79.3 35 A 11.707 11.707 0 0 0 71.47 30.658 A 17.117 17.117 0 0 0 69.1 30.5 A 15.003 15.003 0 0 0 65.593 30.895 A 12.391 12.391 0 0 0 62.85 31.9 Q 60.1 33.3 58.05 35.65 A 17.349 17.349 0 0 0 54.941 40.859 A 19.659 19.659 0 0 0 54.85 41.1 Q 53.7 44.2 53.5 47.6 Z M 285.9 47.6 L 315.5 47.6 A 30.441 30.441 0 0 0 315.003 42.672 Q 314.119 38.023 311.7 35 A 11.707 11.707 0 0 0 303.87 30.658 A 17.117 17.117 0 0 0 301.5 30.5 A 15.003 15.003 0 0 0 297.993 30.895 A 12.391 12.391 0 0 0 295.25 31.9 Q 292.5 33.3 290.45 35.65 A 17.349 17.349 0 0 0 287.341 40.859 A 19.659 19.659 0 0 0 287.25 41.1 Q 286.1 44.2 285.9 47.6 Z M 364.5 72 L 364.5 53.8 A 8.792 8.792 0 0 0 363.778 53.515 Q 363.054 53.261 362.013 52.995 A 41.871 41.871 0 0 0 361 52.75 A 17.414 17.414 0 0 0 359.324 52.46 Q 357.288 52.2 354.4 52.2 Q 352 52.2 349.4 52.55 Q 346.8 52.9 344.6 54.05 Q 342.4 55.2 341 57.2 A 7.216 7.216 0 0 0 339.961 59.484 Q 339.702 60.447 339.629 61.584 A 14.302 14.302 0 0 0 339.6 62.5 A 14.733 14.733 0 0 0 339.751 64.668 Q 339.922 65.815 340.286 66.778 A 8.235 8.235 0 0 0 340.55 67.4 Q 341.5 69.4 343.25 70.6 A 10.867 10.867 0 0 0 345.643 71.821 A 14.172 14.172 0 0 0 347.45 72.35 Q 349.862 72.891 352.903 72.9 A 34.742 34.742 0 0 0 353 72.9 A 99.994 99.994 0 0 0 355.716 72.865 Q 357.869 72.806 359.65 72.65 A 61.802 61.802 0 0 0 361.668 72.441 Q 362.657 72.322 363.516 72.179 A 30.363 30.363 0 0 0 364.5 72 Z M 207.707 11.876 A 6.103 6.103 0 0 0 207.9 10.3 A 6.46 6.46 0 0 0 207.801 9.145 A 4.48 4.48 0 0 0 206.5 6.65 Q 205.1 5.3 203.1 5.3 Q 201.1 5.3 199.7 6.65 A 4.396 4.396 0 0 0 198.493 8.724 A 6.103 6.103 0 0 0 198.3 10.3 A 6.46 6.46 0 0 0 198.399 11.455 A 4.48 4.48 0 0 0 199.7 13.95 Q 201.1 15.3 203.1 15.3 Q 205.1 15.3 206.5 13.95 A 4.396 4.396 0 0 0 207.707 11.876 Z" vector-effect="non-scaling-stroke"/></g></svg>