<?xml version="1.0" encoding="UTF-8"?>
<svg width="71.901" height="72.405" viewBox="0 0 71.901 72.405" xmlns="http://www.w3.org/2000/svg" xmlns:xlink="http://www.w3.org/1999/xlink">
    <!-- Generator: Sketch 51.3 (57544) - http://www.bohemiancoding.com/sketch -->
    <title>logo-mobile</title>
    <desc>Created with Google Font to Svg Path.</desc>
    <defs></defs>
    <g id="Page-1" stroke="none" stroke-width="1" fill="none" fill-rule="evenodd">
        <g id="logo-mobile-zeroidea">
            <path d="M 0.6 26.116 A 79.133 79.133 0 0 0 0.001 36.202 Q 0.001 53.602 6.151 63.002 A 26.241 26.241 0 0 0 7.127 64.395 Q 10.194 68.48 14.315 70.481 A 20.077 20.077 0 0 0 23.201 72.402 Q 29.928 72.402 34.846 68.822 A 21.945 21.945 0 0 0 40.251 63.002 Q 44.48 56.538 45.801 46.289 A 79.133 79.133 0 0 0 46.401 36.202 Q 46.401 18.802 40.251 9.402 A 26.241 26.241 0 0 0 39.275 8.01 Q 36.207 3.925 32.087 1.924 A 20.077 20.077 0 0 0 23.201 0.002 Q 16.473 0.002 11.555 3.583 A 21.945 21.945 0 0 0 6.151 9.402 Q 1.921 15.867 0.6 26.116 Z M 36.601 36.202 A 89.738 89.738 0 0 0 36.294 28.648 A 76.901 76.901 0 0 0 35.951 25.402 A 43.015 43.015 0 0 0 35.21 21.189 Q 34.696 18.958 33.964 17.043 A 26.009 26.009 0 0 0 33.751 16.502 A 18.275 18.275 0 0 0 32.067 13.28 A 13.84 13.84 0 0 0 29.601 10.452 Q 27.001 8.202 23.201 8.202 A 10.622 10.622 0 0 0 19.953 8.68 A 8.917 8.917 0 0 0 16.801 10.452 A 14.111 14.111 0 0 0 13.991 13.82 A 18.816 18.816 0 0 0 12.651 16.502 Q 11.149 20.184 10.492 25.085 A 49.479 49.479 0 0 0 10.451 25.402 Q 9.801 30.502 9.801 36.202 A 89.738 89.738 0 0 0 10.108 43.756 A 76.901 76.901 0 0 0 10.451 47.002 A 43.015 43.015 0 0 0 11.192 51.216 Q 11.706 53.446 12.437 55.362 A 26.009 26.009 0 0 0 12.651 55.902 A 18.275 18.275 0 0 0 14.335 59.124 A 13.84 13.84 0 0 0 16.801 61.952 Q 19.401 64.202 23.201 64.202 A 10.622 10.622 0 0 0 26.449 63.724 A 8.917 8.917 0 0 0 29.601 61.952 A 14.111 14.111 0 0 0 32.41 58.585 A 18.816 18.816 0 0 0 33.751 55.902 Q 35.252 52.221 35.909 47.32 A 49.479 49.479 0 0 0 35.951 47.002 Q 36.601 41.902 36.601 36.202 Z" id="0" vector-effect="non-scaling-stroke" fill="#000000"></path>
            <path d="M 70.201 1.602 L 70.201 20.402 Q 70.201 28.802 69.601 35.652 Q 69.001 42.502 68.101 49.302 L 62.301 49.302 Q 61.401 42.502 60.801 35.652 Q 60.201 28.802 60.201 20.402 L 60.201 1.602 L 70.201 1.602 Z M 71.901 65.502 Q 71.901 68.202 70.101 70.202 A 5.928 5.928 0 0 1 66.429 72.117 A 8.481 8.481 0 0 1 65.201 72.202 A 7.741 7.741 0 0 1 63.059 71.921 A 5.784 5.784 0 0 1 60.301 70.202 Q 58.501 68.202 58.501 65.502 Q 58.501 62.802 60.301 60.802 A 5.928 5.928 0 0 1 63.973 58.888 A 8.481 8.481 0 0 1 65.201 58.802 A 7.741 7.741 0 0 1 67.343 59.084 A 5.784 5.784 0 0 1 70.101 60.802 Q 71.901 62.802 71.901 65.502 Z" id="1" vector-effect="non-scaling-stroke" fill="#1C3ED3"></path>
        </g>
    </g>
</svg>

