<?xml version="1.0" encoding="UTF-8"?>
<svg width="69.701" height="72.305" viewBox="0 0 69.701 72.305" xmlns="http://www.w3.org/2000/svg" xmlns:xlink="http://www.w3.org/1999/xlink">
    <!-- Generator: Sketch 51.3 (57544) - http://www.bohemiancoding.com/sketch -->
    <title>logo-mobile</title>
    <desc>Created with Google Font to Svg Path.</desc>
    <defs></defs>
    <g id="Page-1" stroke="none" stroke-width="1" fill="none" fill-rule="evenodd">
        <g id="logo-mobile">
            <path d="M 5.801 9.302 A 32.463 32.463 0 0 0 2.302 17.322 Q 0.001 25.115 0.001 36.202 A 103.966 103.966 0 0 0 0.001 36.543 Q 0.058 53.793 5.851 63.002 A 25.219 25.219 0 0 0 6.957 64.621 Q 9.875 68.547 13.819 70.466 A 19.128 19.128 0 0 0 22.301 72.302 Q 28.946 72.302 33.725 68.647 A 21.231 21.231 0 0 0 38.751 63.002 Q 42.818 56.536 44.058 46.105 A 84.179 84.179 0 0 0 44.601 36.202 A 105.152 105.152 0 0 0 44.6 35.859 Q 44.565 25.081 42.316 17.445 A 32.43 32.43 0 0 0 38.751 9.302 A 25.219 25.219 0 0 0 37.645 7.684 Q 34.726 3.758 30.783 1.838 A 19.128 19.128 0 0 0 22.301 0.002 A 23.824 23.824 0 0 0 21.267 0.025 Q 11.318 0.456 5.801 9.302 Z M 37.501 36.202 Q 37.501 30.202 36.751 24.752 Q 36.001 19.302 34.201 15.102 A 21.07 21.07 0 0 0 32.272 11.538 A 15.974 15.974 0 0 0 29.501 8.402 A 10.225 10.225 0 0 0 23.864 5.99 A 13.551 13.551 0 0 0 22.301 5.902 A 12.74 12.74 0 0 0 18.855 6.347 A 9.924 9.924 0 0 0 15.001 8.402 A 15.936 15.936 0 0 0 11.833 12.178 A 21.109 21.109 0 0 0 10.351 15.102 A 34.135 34.135 0 0 0 8.736 20.07 A 45.531 45.531 0 0 0 7.851 24.752 Q 7.101 30.202 7.101 36.202 Q 7.101 42.202 7.851 47.652 Q 8.601 53.102 10.351 57.252 Q 12.101 61.402 15.001 63.902 A 10.197 10.197 0 0 0 20.321 66.265 A 13.817 13.817 0 0 0 22.301 66.402 A 12.205 12.205 0 0 0 25.853 65.907 A 9.936 9.936 0 0 0 29.501 63.902 A 16.485 16.485 0 0 0 32.696 60.133 A 21.615 21.615 0 0 0 34.201 57.252 A 31.946 31.946 0 0 0 35.817 52.476 A 42.996 42.996 0 0 0 36.751 47.652 Q 37.501 42.202 37.501 36.202 Z" id="0" vector-effect="non-scaling-stroke" fill="#000000"></path>
            <path d="M 67.701 1.502 L 67.701 20.802 A 218.092 218.092 0 0 1 67.642 25.963 A 177.618 177.618 0 0 1 67.551 28.852 A 161.674 161.674 0 0 1 67.173 35.223 A 146.336 146.336 0 0 1 67.101 36.102 A 340.857 340.857 0 0 1 66.494 42.489 A 312.859 312.859 0 0 1 66.451 42.902 Q 66.101 46.202 65.701 49.502 L 62.701 49.502 Q 61.801 42.802 61.251 36.102 Q 60.778 30.345 60.712 23.184 A 256.601 256.601 0 0 1 60.701 20.802 L 60.701 1.502 L 67.701 1.502 Z M 69.701 66.502 Q 69.701 68.802 68.251 70.402 A 4.744 4.744 0 0 1 65.59 71.872 A 7.053 7.053 0 0 1 64.201 72.002 A 6.784 6.784 0 0 1 62.515 71.805 A 4.679 4.679 0 0 1 60.151 70.402 A 5.556 5.556 0 0 1 58.704 66.716 A 7.144 7.144 0 0 1 58.701 66.502 Q 58.701 64.202 60.151 62.602 A 4.744 4.744 0 0 1 62.811 61.132 A 7.053 7.053 0 0 1 64.201 61.002 A 6.784 6.784 0 0 1 65.887 61.2 A 4.679 4.679 0 0 1 68.251 62.602 A 5.556 5.556 0 0 1 69.698 66.288 A 7.144 7.144 0 0 1 69.701 66.502 Z" id="1" vector-effect="non-scaling-stroke" fill="#1C3ED3"></path>
        </g>
    </g>
</svg>

