<?xml version="1.0" encoding="UTF-8"?>
<svg width="66" height="75.102" viewBox="0 0 66 75.102" xmlns="http://www.w3.org/2000/svg" version="1.1" xmlns:xlink="http://www.w3.org/1999/xlink">
    <!-- Generator: Sketch 51.3 (57544) - http://www.bohemiancoding.com/sketch -->
    <title>logo</title>
    <desc>Created with Google Font to Svg Path.</desc>
    <defs></defs>
    <g id="Page-1" stroke="none" stroke-width="1" fill="none" fill-rule="evenodd" stroke-linecap="round">
        <g id="logo">
            <path d="M 43 24.001 L 43 34.001 Q 41.2 36.001 38.15 39.401 Q 35.1 42.801 31.6 46.901 A 284.368 284.368 0 0 0 25.437 54.382 A 311.603 311.603 0 0 0 24.55 55.501 Q 21 60.001 18.1 64.201 L 43.5 64.201 L 43.5 76.601 L 0 76.601 L 0 67.801 Q 2.1 64.201 5.05 60.051 Q 8 55.901 11.25 51.701 Q 14.5 47.501 17.7 43.551 Q 20.9 39.601 23.6 36.401 L 1.2 36.401 L 1.2 24.001 L 43 24.001 Z" id="0" vector-effect="non-scaling-stroke"
            fill="#3f3f3f"></path>
            <path d="M 58 24.001 L 58 76.601 L 43.1 76.601 L 43.1 24.001 L 58 24.001 Z" id="1" vector-effect="non-scaling-stroke"
             fill="#3f3f3f"></path>
            <path d="M 59.4 8.801 Q 59.4 12.901 56.75 15.251 Q 54.1 17.601 50.5 17.601 Q 46.9 17.601 44.25 15.251 A 7.711 7.711 0 0 1 41.727 10.511 A 11.094 11.094 0 0 1 41.6 8.801 Q 41.6 4.701 44.25 2.351 Q 46.9 0.001 50.5 0.001 Q 54.1 0.001 56.75 2.351 A 7.711 7.711 0 0 1 59.273 7.091 A 11.094 11.094 0 0 1 59.4 8.801 Z" id="1" vector-effect="non-scaling-stroke"
             fill="#2142cf"></path>

        </g>
    </g>
</svg>